<?xml version="1.0" encoding="iso-8859-1"?>
<!-- Generator: Adobe Illustrator 19.0.0, SVG Export Plug-In . SVG Version: 6.00 Build 0)  -->
<svg version="1.1" id="Layer_1" xmlns="http://www.w3.org/2000/svg" xmlns:xlink="http://www.w3.org/1999/xlink" x="0px" y="0px"
	 viewBox="0 0 339.087 339.087" style="enable-background:new 0 0 339.087 339.087;" xml:space="preserve">
<g id="XMLID_843_">
	<path id="XMLID_846_" style="fill:#91C6A5;" d="M169.544,24.89L32.427,131.4v170.16c0,14.434,11.701,26.135,26.135,26.135h221.965
		c14.434,0,26.135-11.701,26.135-26.135V131.4L169.544,24.89z"/>
	<g id="XMLID_847_">
		<path id="XMLID_848_" style="fill:#2B7B57;" d="M315.031,153.891L169.544,43.707L24.058,153.891
			c-6.604,5.002-16.012,3.703-21.014-2.901l0,0c-5.002-6.604-3.703-16.012,2.901-21.014l150.98-114.345
			c7.463-5.652,17.775-5.652,25.239,0l150.979,114.345c6.604,5.002,7.903,14.41,2.901,21.014l0,0
			C331.043,157.594,321.634,158.893,315.031,153.891z"/>
	</g>
	<g id="XMLID_850_">
		<path id="XMLID_15_" style="fill:#49B86E;" d="M225.075,194.688c0,47.464-55.531,85.941-55.531,85.941
			s-55.531-38.477-55.531-85.941c0-33.739,28.059-62.937,44.286-77.002c6.462-5.601,16.028-5.601,22.489,0
			C197.016,131.752,225.075,160.95,225.075,194.688z"/>
		<g id="XMLID_851_">
			<path id="XMLID_9_" style="fill:#2B7B57;" d="M169.544,303.662L169.544,303.662c-8.742,0-15.83-7.087-15.83-15.83v-77.314
				c0-8.742,7.087-15.829,15.829-15.829l0,0c8.742,0,15.83,7.087,15.829,15.83v77.314
				C185.373,296.575,178.286,303.662,169.544,303.662z"/>
		</g>
	</g>
</g>
<g>
</g>
<g>
</g>
<g>
</g>
<g>
</g>
<g>
</g>
<g>
</g>
<g>
</g>
<g>
</g>
<g>
</g>
<g>
</g>
<g>
</g>
<g>
</g>
<g>
</g>
<g>
</g>
<g>
</g>
</svg>
