<?xml version="1.0" encoding="iso-8859-1"?>
<!-- Generator: Adobe Illustrator 19.0.0, SVG Export Plug-In . SVG Version: 6.00 Build 0)  -->
<svg version="1.1" id="Layer_1" xmlns="http://www.w3.org/2000/svg" xmlns:xlink="http://www.w3.org/1999/xlink" x="0px" y="0px"
	 viewBox="0 0 511.976 511.976" style="enable-background:new 0 0 511.976 511.976;" xml:space="preserve">
<path style="fill:#ED5564;" d="M328.87,69.334c-24.373,0-46.404,10.016-62.224,26.155c-15.812-16.14-37.843-26.155-62.217-26.155
	c-48.108,0-87.106,38.999-87.106,87.106c0,99.544,149.323,186.643,149.323,186.643s149.347-87.099,149.347-186.643
	C415.993,108.333,376.978,69.334,328.87,69.334z"/>
<g style="opacity:0.2;">
	<path style="fill:#FFFFFF;" d="M328.87,69.334c-3.608,0-7.155,0.219-10.655,0.656c43.062,5.25,76.435,41.952,76.435,86.45
		c0,83.278-104.496,157.862-138.659,179.986c6.656,4.344,10.656,6.656,10.656,6.656s149.347-87.099,149.347-186.643
		C415.993,108.333,376.978,69.334,328.87,69.334z"/>
</g>
<path style="fill:#EAC6BB;" d="M450.866,298.302c-3.344-0.25-7.016-0.375-11.03-0.375c-26.249,0-67.139,5.594-123.152,15.469
	c-6.968-19.875-51.256-28.593-51.256-28.593s-95.56-5.219-156.557-8.531c-3.891-0.219-7.656-0.312-11.281-0.312
	C16.78,275.928,0,326.365,0,326.365v52.248c0.031,29.967,92.341,44.654,92.653,44.686c73.326,14.5,163.463,19.344,163.463,19.344
	s246.999-97.028,253.468-102.716C516.067,334.27,513.239,303.302,450.866,298.302z"/>
<path style="fill:#DBADA2;" d="M385.899,302.396c-19.404,2.594-42.029,6.219-67.872,10.75c-3.312,1.469-6.702,2.969-10.187,4.469
	c-67.788,28.905-115.723,34.967-143.988,34.967c-5.891,0-10.672,4.781-10.672,10.688c0,5.875,4.781,10.656,10.672,10.656
	c44.108,0,95.481-12.406,152.69-36.843C351.151,322.302,376.963,307.677,385.899,302.396z"/>
<g>
</g>
<g>
</g>
<g>
</g>
<g>
</g>
<g>
</g>
<g>
</g>
<g>
</g>
<g>
</g>
<g>
</g>
<g>
</g>
<g>
</g>
<g>
</g>
<g>
</g>
<g>
</g>
<g>
</g>
</svg>
